<?xml version="1.0" standalone="no"?>
<!DOCTYPE svg PUBLIC "-//W3C//DTD SVG 20010904//EN"
 "http://www.w3.org/TR/2001/REC-SVG-20010904/DTD/svg10.dtd">
<svg version="1.0" xmlns="http://www.w3.org/2000/svg"
 width="288.000000pt" height="288.000000pt" viewBox="0 0 288.000000 288.000000"
 preserveAspectRatio="xMidYMid meet">
<g transform="translate(0.000000,288.000000) scale(0.100000,-0.100000)"
fill="#1e3c7f" stroke="none">
<path d="M372 2338 c-34 -73 -62 -136 -62 -140 0 -5 362 -272 397 -291 6 -4
-50 121 -125 278 -75 157 -139 285 -143 285 -3 0 -33 -60 -67 -132z"/>
<path d="M2299 2185 c-75 -157 -132 -282 -125 -278 34 19 396 286 396 291 1
12 -123 272 -129 272 -3 0 -67 -128 -142 -285z"/>
<path d="M280 2147 c0 -2 42 -92 94 -199 l95 -195 158 -113 c87 -63 280 -202
428 -310 149 -108 275 -199 282 -203 8 -5 22 23 44 93 27 87 30 103 18 115
-11 10 -631 463 -1071 782 -27 19 -48 33 -48 30z"/>
<path d="M2525 2097 c-39 -28 -286 -208 -550 -400 -264 -192 -486 -355 -494
-362 -12 -12 -9 -28 18 -115 22 -70 36 -98 44 -93 7 4 134 95 282 203 149 108
341 247 428 310 l158 113 95 195 c52 108 93 197 91 198 -1 2 -34 -20 -72 -49z"/>
<path d="M529 1628 c5 -13 47 -101 93 -196 l84 -173 138 -100 139 -99 175 0
c97 0 172 4 167 8 -6 5 -143 105 -305 222 -162 118 -335 243 -385 280 -118 87
-117 86 -106 58z"/>
<path d="M2289 1602 c-35 -26 -212 -155 -394 -286 -181 -132 -334 -243 -339
-248 -6 -4 69 -8 166 -8 l175 0 139 99 138 100 84 173 c85 176 104 218 98 218
-2 0 -32 -21 -67 -48z"/>
<path d="M1390 1037 c-66 -23 -101 -120 -67 -187 18 -37 74 -70 117 -70 43 0
99 33 117 70 28 56 4 152 -44 178 -33 18 -87 22 -123 9z"/>
<path d="M1020 874 c-58 -41 -106 -79 -107 -82 -4 -12 259 -194 267 -186 6 8
80 234 80 247 0 6 -106 86 -122 92 -7 3 -60 -29 -118 -71z"/>
<path d="M1682 904 c-34 -25 -62 -48 -62 -51 0 -13 74 -239 80 -247 8 -8 271
174 267 186 -2 7 -195 148 -212 154 -6 3 -39 -16 -73 -42z"/>
<path d="M1330 649 c-52 -38 -99 -74 -103 -78 -8 -8 195 -161 214 -161 10 0
219 149 219 155 0 9 -210 155 -222 155 -7 -1 -56 -32 -108 -71z"/>
</g>
</svg>
